<svg width="81" height="107" viewBox="0 0 81 107" fill="none" xmlns="http://www.w3.org/2000/svg">
<path d="M80.525 81H7.62939e-06V0.487495H80.525V81Z" fill="#3145de"/>
<path d="M75.195 93.328C75.1445 92.6965 74.9077 92.2039 74.4846 91.8502C74.0677 91.4966 73.433 91.3197 72.5805 91.3197C72.0373 91.3197 71.5921 91.386 71.2448 91.5187C70.9037 91.645 70.6511 91.8187 70.4869 92.0397C70.3227 92.2607 70.2375 92.5133 70.2311 92.7975C70.2185 93.0312 70.2596 93.2428 70.3543 93.4322C70.4553 93.6154 70.6132 93.7827 70.8279 93.9343C71.0427 94.0796 71.3174 94.2122 71.6521 94.3322C71.9868 94.4522 72.3847 94.5595 72.8457 94.6543L74.4372 94.9953C75.5108 95.2227 76.4297 95.5226 77.1939 95.8952C77.958 96.2679 78.5833 96.7068 79.0695 97.212C79.5558 97.7109 79.9127 98.273 80.14 98.8982C80.3737 99.5234 80.4937 100.206 80.5 100.944C80.4937 102.22 80.1747 103.3 79.5432 104.184C78.9117 105.068 78.0086 105.741 76.8339 106.202C75.6655 106.663 74.2604 106.894 72.6184 106.894C70.9322 106.894 69.4607 106.644 68.2039 106.145C66.9534 105.646 65.9809 104.879 65.2862 103.843C64.5978 102.801 64.2505 101.469 64.2441 99.8455H69.2459C69.2775 100.439 69.4259 100.938 69.6912 101.342C69.9564 101.746 70.329 102.053 70.809 102.261C71.2953 102.47 71.8731 102.574 72.5426 102.574C73.1046 102.574 73.5751 102.504 73.9541 102.365C74.333 102.226 74.6203 102.034 74.8161 101.788C75.0119 101.541 75.1129 101.26 75.1193 100.944C75.1129 100.648 75.0151 100.389 74.8256 100.168C74.6424 99.9403 74.3393 99.7382 73.9162 99.5613C73.493 99.3782 72.9215 99.2077 72.2015 99.0498L70.269 98.633C68.5512 98.2604 67.1966 97.6383 66.2051 96.7668C65.2199 95.8889 64.7304 94.6922 64.7367 93.1765C64.7304 91.945 65.0588 90.8682 65.7219 89.9461C66.3914 89.0178 67.3166 88.2947 68.4976 87.7768C69.6849 87.2589 71.0458 87 72.5805 87C74.1467 87 75.5013 87.2621 76.6444 87.7863C77.7875 88.3104 78.6685 89.0493 79.2874 90.003C79.9127 90.9503 80.2284 92.0586 80.2347 93.328H75.195Z" fill="#fff"/>
<path d="M40.7982 106.666L35.0765 87.2653H40.9498L43.6023 99.2014H43.7538L46.8989 87.2653H51.5218L54.6669 99.2393H54.8184L57.4709 87.2653H63.3442L57.6225 106.666H52.5828L49.2861 95.8289H49.1346L45.8379 106.666H40.7982Z" fill="#fff"/>
<path d="M19.2778 106.666V87.2653H33.2601V91.5092H24.5448V94.8437H32.5401V99.0877H24.5448V102.422H33.2222V106.666H19.2778Z" fill="#fff"/>
<path d="M16.7863 87.2653V106.666H12.3908L5.38072 96.4731H5.26704V106.666H0V87.2653H4.4713L11.3677 97.4204H11.5193V87.2653H16.7863Z" fill="#fff"/>
<path d="M80.5391 17V64.2727H67.7053V17H80.5391Z" fill="#FBF6F6"/>
<path d="M28.2518 64.2727H14.4023L30.006 17H47.5487L63.1523 64.2727H49.3029L38.962 30.0185H38.5927L28.2518 64.2727ZM25.6665 45.6222H51.7035V55.2244H25.6665V45.6222Z" fill="#FBF6F6"/>
</svg>
